<?xml version="1.0" encoding="UTF-8"?><svg xmlns="http://www.w3.org/2000/svg" width="630" height="485" xmlns:xlink="http://www.w3.org/1999/xlink" viewBox="0 0 630 485"><defs><style>.cls-1{fill:#ffd1a9;}.cls-2{fill:#93745c;}.cls-3{filter:url(#drop-shadow-5);}.cls-4{fill:#af845d;}.cls-5{fill:#aa241b;}.cls-6{fill:#f2aa8b;}.cls-7{fill:#ff7bac;}.cls-8{fill:#e6e6e6;}.cls-9{fill:#38ad6d;}.cls-10{stroke:#f15a24;}.cls-10,.cls-11,.cls-12,.cls-13{stroke-miterlimit:10;}.cls-10,.cls-12,.cls-13{fill:none;}.cls-14{fill:#009245;}.cls-15{fill:#037c39;}.cls-16{fill:#8cc63f;}.cls-17{fill:#e2ac88;}.cls-18{fill:#4d4d4d;}.cls-19{fill:#ccc;}.cls-20{fill:#d8eaf0;}.cls-21{fill:#ffc6a9;}.cls-11,.cls-22{fill:#fbb03b;}.cls-11,.cls-13{stroke:#ed1c24;}.cls-23{fill:#e56c9d;}.cls-24{fill:#e5b795;}.cls-25{fill:#eaac7d;}.cls-26{fill:#fff;}.cls-27{fill:#39b54a;}.cls-28{fill:#ffae8f;}.cls-29{fill:#f4abc9;}.cls-30{fill:#efbf9c;}.cls-31{fill:#f7931e;}.cls-32{fill:#c69c6d;}.cls-33{fill:#29abe2;}.cls-34{fill:#6fc678;}.cls-35{fill:#b3b3b3;}.cls-36{fill:#ed4f8f;}.cls-37{fill:#c3d4d8;}.cls-12{stroke:#efbe9a;}.cls-38{fill:#006837;}.cls-39{fill:#80d1ed;}.cls-40{fill:#333;}.cls-41{fill:#999;}</style><filter id="drop-shadow-5" x="-48.31" y="-41.65" width="721" height="579" filterUnits="userSpaceOnUse"><feOffset dx="-17" dy="23"/><feGaussianBlur result="blur" stdDeviation="23"/><feFlood flood-color="#000" flood-opacity=".75"/><feComposite in2="blur" operator="in"/><feComposite in="SourceGraphic"/></filter></defs><g id="krop_4-2"><ellipse class="cls-32" cx="180.09" cy="188.91" rx=".76" ry=".81" transform="translate(-67.31 272.07) rotate(-64.95)"/><ellipse class="cls-32" cx="189.58" cy="191.6" rx=".76" ry=".81" transform="translate(-64.27 282.21) rotate(-64.95)"/><ellipse class="cls-32" cx="191.29" cy="183.99" rx=".76" ry=".81" transform="translate(-56.39 279.38) rotate(-64.95)"/><ellipse class="cls-32" cx="166.38" cy="187.64" rx=".76" ry=".81" transform="translate(-74.06 258.91) rotate(-64.95)"/><ellipse class="cls-32" cx="176.1" cy="182.04" rx=".76" ry=".81" transform="translate(-63.38 264.49) rotate(-64.95)"/><ellipse class="cls-32" cx="179.01" cy="195.13" rx=".76" ry=".81" transform="translate(-73.56 274.68) rotate(-64.95)"/><ellipse class="cls-32" cx="172.28" cy="190.35" rx=".76" ry=".81" transform="translate(-73.12 265.82) rotate(-64.95)"/><ellipse class="cls-32" cx="259.42" cy="188.61" rx=".76" ry=".81" transform="translate(-21.29 343.76) rotate(-64.95)"/><ellipse class="cls-32" cx="267.43" cy="190.62" rx=".76" ry=".81" transform="translate(-18.49 352.18) rotate(-64.95)"/><ellipse class="cls-32" cx="245.71" cy="187.33" rx=".76" ry=".81" transform="translate(-28.04 330.6) rotate(-64.95)"/><ellipse class="cls-32" cx="255.43" cy="181.74" rx=".76" ry=".81" transform="translate(-17.37 336.19) rotate(-64.95)"/><ellipse class="cls-32" cx="257.71" cy="196.22" rx=".76" ry=".81" transform="translate(-29.17 346.6) rotate(-64.95)"/><ellipse class="cls-32" cx="251.61" cy="190.05" rx=".76" ry=".81" transform="translate(-27.1 337.51) rotate(-64.95)"/></g><g id="målmand"><g class="cls-3"><path class="cls-1" d="M497.48,269.25l15.89-11.81s1.03-27.55-23.64-42.31l-14.7,13.43,22.45,40.68Z"/><path class="cls-1" d="M439.92,158.89l-8.98,16.56,37.04,30.46,11.32-22.95s-8.51-33.57-39.38-24.07Z"/><path class="cls-27" d="M357.55,221.89s60.97-37.03,64.77-39.76c0,0,27.73-6.07,37.48,29.35l-6.48,17.1,9.72-1.74s23.06,25.63,21.28,36.84c0,0,8.23,24.22-8.77,32.22,0,0-44.45,27.52-81.23,28.76l-36.77-102.76Z"/><path class="cls-38" d="M468.08,242.39s25.52,27.65,0,38.58c0,0-46.52,21.92-66.52,14.92l-22.24-42.7-14.89-28.58,51.62-34.22s42.15,15.5,30.32,42c0,0,7.76-4.36,14.97,3.07,7.21,7.43,6.73,6.93,6.73,6.93Z"/><line class="cls-27" x1="382.74" y1="259.77" x2="446.37" y2="232.39"/><path class="cls-14" d="M223.64,358.37s37.91,26.77,21.41,49.64c0,0,34.65-5.68,51.57-21.9l32.93-47.22s16-48.73,14.5-59.37c-1.5-10.63,8.1-42.07-18.2-37.85,0,0-32.61-4.22-45.95,41.5s-56.26,75.2-56.26,75.2Z"/><path class="cls-14" d="M357.55,221.89c-7-4-14.58.69-14.58.69-7.58-.31-17.12,4.25-17.12,4.25,0,0-2.3-4.94-9.65-8.44-7.35-3.5-12.93-3.24-12.93-3.24-3.28,9.26-18.22,24.24-18.22,24.24l-3.47,2.29c-.47,28.29-12.53,34.71-12.53,34.71-34,26-36.42-12.55-36.42-12.55l-12.52,2.55c-10.94-1-39.41-16.69-39.41-16.69-.85-1.19-21.65,18.69-21.65,18.69l-11,18c-14-5-26.5-10.5-26.5-10.5l-5,12-12,26s12.22,17.61,27.5,19.5c0,0,27,5,33-2l44.3-27.04s5.29,5.06,12.7,10.89v-.85.85c8.75,6.89,20.46,14.86,29.95,16.89l72.54,13.94c31,4.18,41.3-11.18,41.3-11.18,11.3,4,15.7,0,15.7,0,23-10,20-39,20-39,6-60-44-74-44-74Z"/><path class="cls-26" d="M232.05,263.39s27.05,54.58,48.53-21.71l8.78-6.73s-1.32,35.46-11.3,50.44c-2,3-19,14-33,9,0,0-15-6-21-18-5.41-10.82-1.85-10.43-1.85-10.43l9.85-2.57Z"/><path class="cls-8" d="M451.05,139.39l-15,22s33.48-10.85,43.24,21.58l40.76-54.58s5.29-31.19-25.85-21.59l-43.15,32.59Z"/><path class="cls-8" d="M490.05,215.39l23,42,35-44s35.22-35.42-2-32l-56,34Z"/><path class="cls-36" d="M612.56,245.8c2.21-4.29,1.79-12.31,7-13.97.94-.3-.77-3.23-1.02-4.14-.78-2.76-5.18,3.99-6.73-3.38,1.62-1.4,4.05-1.68,5.67-3.08-.09-2.05-1.87-3.72-2.95-5.44-2.07.88-2.18.95-4.24,1.83-.84-1.04-1.67-2.08-2.51-3.13,1.97-.41,3.49-2.44,3.26-4.37s-2.16-3.47-4.16-3.3c-1.29.11-2.68.82-3.94,1.17-1.05.29-.03,1.1-2.37-2.22,3.01-.16,4.36-4.67,2.21-6.65s-6.68-.51-8.54,1.86c-2.01-3.46-3.45-6.34-5.42-11.02,2.64-.94,4.01-4.42,2.64-6.74-1.37-2.32-5.08-2.84-7.19-.99-.41-1.7-1.17-3.31-2.23-4.7,3.01-1.13,4.16-5.47,2.04-7.73-2.11-2.26-6.63-1.5-8.03,1.34l-1.79.06"/><path class="cls-7" d="M544.67,216.75s19.5,14.22,28.5,20.91c12.7,9.45,26.79,21.31,35.41,12.43,7.74-7.98,4.78-18.42,4.78-18.42l-11.95-21.99-9.34-9.3-13.3-24.47s-4.92-9.06-13.92-5.35l-18.9,10.27s3.75,1.41,10.22,12.06c6.47,10.65-11.51,23.86-11.51,23.86Z"/><path class="cls-36" d="M587.75,104c-1.34-4.75-7.14-10.29-4.52-15.31.47-.9-2.76-1.8-3.57-2.27-2.45-1.45-1,6.69-7.17,2.44.21-2.2,1.77-4.18,1.98-6.38-1.47-1.43-3.89-1.35-5.85-1.81-.89,2.15-.92,2.28-1.81,4.43-1.32-.15-2.63-.3-3.95-.45,1.14-1.73.84-4.32-.64-5.57s-3.93-.96-5.25.63c-.86,1.02-1.37,2.55-2.04,3.72-.56.98.73.82-3.23.11,2.06-2.31-.05-6.58-2.96-6.47-2.91.12-5.16,4.5-4.88,7.59-3.82-1.06-6.83-2.12-11.45-4.09,1.26-2.61-.14-6.15-2.71-6.85s-5.6,1.64-5.87,4.52c-1.46-.95-3.11-1.56-4.83-1.8,1.4-3.02-.75-7.03-3.82-7.13s-5.81,3.74-4.87,6.83l-1.25,1.35"/><path class="cls-7" d="M518.91,132.31s23.79-3.84,34.86-5.52c15.62-2.37,33.91-3.98,34.04-16.76.12-11.48-9.16-16.93-9.16-16.93l-23.67-7.34-13.1.02-26.34-8.17s-9.76-3.02-13.7,6.25l-6.6,21.28s3.67-1.71,15.63,1.35c11.96,3.05,8.04,25.82,8.04,25.82Z"/><path class="cls-36" d="M531.96,126.17c2.75-.93,5.89-1.03,8.64-1.96-.05-4.03-.51-8.97-1.97-12.72-1.47-3.75,0-8.38-8.65-7.57,1.58,7.21,2.2,14.62,1.83,21.99"/><path class="cls-36" d="M546.33,123.05c3.4.1,6.82-.52,9.97-1.81,2.02-7.6-4.98-16.13-12.83-15.64,2.45,5.93,2.87,10.5,2.71,16.91"/><path class="cls-36" d="M558.7,226.51c2.78.85,5.39,2.58,8.17,3.42,2.29-3.31,4.8-7.6,5.78-11.5.98-3.9,4.87-6.82-2.65-11.18-2.9,6.78-6.7,13.18-11.28,18.97"/><path class="cls-36" d="M572.21,232.3c2.71,2.06,5.86,3.54,9.17,4.32,6.06-5.02,5.32-16.02-1.36-20.19-1.45,6.25-3.76,10.21-7.61,15.34"/><path class="cls-22" d="M206.07,366.21l-.98.14.15-.17c.27.02.55.03.83.03Z"/><path class="cls-22" d="M205.28,366.13c6.19-2.57,17.73-9.47,23.27-13.24,23.6,15.12,41.98,37.37,29,55-6.28,1.68-24.78,5.19-31.18,6.34-10.25,15.14-31.59,23.6-48.31,16.21-6.64,3.46-13.19,7.16-19.83,10.61-5.21,2.71-12.19,5.21-16.37,1.09-2.42-2.39-2.78-6.32-1.66-9.53,1.11-3.22,3.45-5.85,5.89-8.22.16-.16.32-.31.49-.47,6.6-6.32,14.35-11.46,22.75-15.09l35.76-42.48.98-.14c-.28,0-.56,0-.83-.03l.04-.05Z"/><path class="cls-22" d="M205.09,366.35l-35.76,42.48c-8.4,3.63-16.15,8.77-22.75,15.09l-.54-.56,12.92-31.03c-10.66,2.91-20.9,7.34-30.34,13.09l-.57-.93,34.91-31.94,42.13-6.2Z"/><path class="cls-22" d="M205.09,366.35l-42.13,6.2.91-.83c-11.61-1.97-23.53.66-34.59,4.69-.69.25-1.38.52-2.08.81-4.01-9.14,2.04-20.82,11.69-23.65,16.11-4.73,34.05-2.83,48.81,5.15,5.64,3.05,11.2,7.05,17.54,7.46l-.15.17Z"/><path class="cls-22" d="M162.96,372.55l-34.91,31.94c-6.96,3.03-16.09-2.82-16.25-10.41-.17-8.13,7.67-13.66,15.4-16.86.07.19.16.37.25.56l35.51-5.23Z"/><path class="cls-22" d="M158.96,392.33l-12.92,31.03c-5.72,1.98-11.88,3.97-17.71,2.36-5.84-1.62-10.56-8.52-7.63-13.82,1.12-2.03,3.1-3.42,5.04-4.68.95-.62,1.91-1.22,2.88-1.8,9.44-5.75,19.68-10.18,30.34-13.09Z"/><path class="cls-22" d="M127.45,377.78c-.09-.19-.18-.37-.25-.56.7-.29,1.39-.56,2.08-.81,11.06-4.03,22.98-6.66,34.59-4.69l-.91.83-35.51,5.23Z"/><path class="cls-10" d="M205.28,366.13c6.19-2.57,17.73-9.47,23.27-13.24,23.6,15.12,41.98,37.37,29,55-6.28,1.68-24.78,5.19-31.18,6.34-10.25,15.14-31.59,23.6-48.31,16.21-6.64,3.46-13.19,7.16-19.83,10.61-5.21,2.71-12.19,5.21-16.37,1.09-2.42-2.39-2.78-6.32-1.66-9.53,1.11-3.22,3.45-5.85,5.89-8.22.16-.16.32-.31.49-.47,6.6-6.32,14.35-11.46,22.75-15.09"/><path class="cls-10" d="M158.96,392.33c-10.66,2.91-20.9,7.34-30.34,13.09-.97.58-1.93,1.18-2.88,1.8-1.94,1.26-3.92,2.65-5.04,4.68-2.93,5.3,1.79,12.2,7.63,13.82,5.83,1.61,11.99-.38,17.71-2.36"/><path class="cls-10" d="M128.05,404.49c-6.96,3.03-16.09-2.82-16.25-10.41-.17-8.13,7.67-13.66,15.4-16.86.7-.29,1.39-.56,2.08-.81,11.06-4.03,22.98-6.66,34.59-4.69"/><path class="cls-10" d="M206.07,366.21c-.28,0-.56,0-.83-.03-6.34-.41-11.9-4.41-17.54-7.46-14.76-7.98-32.7-9.88-48.81-5.15-9.65,2.83-15.7,14.51-11.69,23.65.07.19.16.37.25.56"/><path class="cls-30" d="M231.63,263.83l48.95-22.16s-.53,27.71-12.53,34.71-29.84,21.9-36.42-12.55Z"/><path class="cls-11" d="M46.72,250.64c-2.15-3.05-2.34-7.36-.47-10.59,1.87-3.23,5.7-5.22,9.42-4.9-.21-3.85.53-8.3,3.96-10.07s7.88-1.35,10.91,1.04c.77-3.35,5.29-4.75,8.73-4.73,3.45.02,6.68,1.57,9.77,3.09,5.03,2.47,10.06,4.94,15.09,7.41,1.7.84,3.45,1.71,4.71,3.13,1.38,1.57,2.01,3.65,2.6,5.65,2.86,9.7,5.72,19.4,8.59,29.1,1.69,5.71,8.64,9,14.04,11.54-4.99,6.34-8.63,15.41-13.62,21.75-4.19,5.32-5.17,10.79-9.08,16.32-5.91-2.52-18.9-8.32-24.98-10.42-17.41-6.02-34.4-14.08-45.77-28.55-3.5-4.46-.44-11.42,3.24-15.73-4.27-3.68-2.62-12.83,2.89-14.04Z"/><path class="cls-13" d="M48.03,252.03c9.65-.15,17.98,6.49,25.42,12.79,1.24,1.05,2.51,2.14,3.28,3.58,1.36,2.55.79,6.02-1.32,7.97-5.39,4.99-7.58-2.15-11.98-3.66-6.13-2.09-12.25-4.18-18.38-6.26"/><path class="cls-13" d="M47.37,278.94c3.75,3.59,8.01,7.4,13.15,7.44s10.11-6.27,7.01-10.45"/><path class="cls-13" d="M71.86,262.5c2.39,3.43,8.47.52,8.78-3.68s-3.13-7.78-6.82-9.64c3.59.54,7.42-1.15,9.5-4.2,2.08-3.05,2.32-7.3.59-10.57"/><path class="cls-13" d="M59.77,241.35c2.59,5.37,9.04,8.44,14.72,7.01"/><path class="cls-13" d="M55.41,235.8c2.32.79,4.49,2.01,6.4,3.59-.42.92-1.27,1.62-2.25,1.85"/><path class="cls-13" d="M62.17,239.43c4.18-3.65,7.7-8.1,10.31-13.04"/><path class="cls-31" d="M97.22,304.13c1.69.71,3.42,1.45,4.72,2.73s2.09,3.26,1.47,4.98c-3.64,1.01-7.5-.66-10.54-2.88s-5.68-5.04-8.99-6.85c-3.19-1.75-7.37-2.33-9.99-4.47,4.36-4.72,18.46,4.43,23.33,6.49Z"/><path class="cls-15" d="M157.28,322.1c3.33-1.98,6.27-4.96,10.09-5.58,1.61-.26,3.74.36,3.84,1.99.06.99-.7,1.83-1.4,2.53-3.69,3.67-7.48,7.41-12.16,9.68-4.68,2.28-10.51,2.87-14.99.21-3.26-1.94-5.6-5.4-7.16-8.78,7.12,2.65,14.61,4.2,21.77-.06Z"/><path class="cls-31" d="M254.25,404c.64-.4,1.33-1.18.89-1.79-11.93-.69-23.62,3.12-34.97,6.87-2.2.73-4.47,1.5-6.13,3.11-1.21,1.17-2.2,2.72-2.91,4.21,7.28-2.62,12.91-5.79,21-6.82,7.53-.97,15.5-1.43,22.12-5.58Z"/><path class="cls-15" d="M285.07,289.93c-8.17,13.1-18.91,24.59-31.43,33.63-1.43,1.03-2.99,2.2-3.34,3.92-1.4,6.87,8.01-1.07,9.24-2.12,3.76-3.23,7.26-6.76,10.46-10.54s6.1-7.82,8.66-12.07,3.94-8.83,6.42-12.82Z"/><path class="cls-15" d="M321.31,319.3c0,1.55,0,3.13-.48,4.6-.66,2.01-2.15,3.62-3.5,5.25-3.08,3.72-5.62,7.87-7.53,12.3,4.66-.55,7.52-5.23,9.67-9.4,1.61-3.11,3.23-6.26,4.15-9.64,1.33-4.92,1.47-11.88-1.44-16.23-2.1,2.81-.87,9.54-.87,13.1Z"/><path class="cls-15" d="M323.2,227.06c-3.63-1.01-5.88-4.66-9.24-6.37-1.59-.81-3.46-1.2-5.01-1.93,2.58-.84,5.95.6,8.28,2.01,1.68,1.02,4.71,5.94,5.98,6.29Z"/><path class="cls-15" d="M351.67,224.23c.91-.32,1.62-1.06,2.51-1.41,1.64-.64,3.45.13,5.04.9,1.73.83,3.45,1.66,5.18,2.49.62.3,1.34.95.96,1.52-2.01.67-4.09-.55-6.14-1.09-1.12-.29-2.28-.38-3.43-.46-3.34-.25-8.77.36-11.38-1.71,2.19-.81,5.36.86,7.26-.23Z"/><path class="cls-15" d="M353.43,340.07c1.63-.05,3.11-.95,4.37-1.98,2.47-2.02,4.42-4.66,5.61-7.62.68,2.84-.26,6.02-2.37,8.04s-5.32,2.83-8.13,2.03"/><path class="cls-15" d="M394.91,312.04c.33,5.11-1.24,10.33-4.34,14.41-2.6,3.42-6.31,6.1-10.42,7.38,6.58-6.27,11.73-13.08,14.76-21.79Z"/><path class="cls-26" d="M460.77,135.18c-5.06,6.47-8.25,14.96-13.34,20.97-1.11-10.02,8.28-14.5,13.34-20.97Z"/><path class="cls-35" d="M512.96,113.73c3.84,4.48,5.74,10.57,5.15,16.44.98-4.37,1.97-8.84,1.44-13.29s-2.9-8.94-6.97-10.8c-3.34-1.53-7.63-1.38-11.18-.95,2.19,3.68,8.43,4.92,11.57,8.59Z"/><path class="cls-41" d="M551.12,208.07c-2,2.97-4.93,5.35-6.33,8.65,6.09-3.16,10.76-8.93,12.58-15.54.57-2.05.86-4.25.28-6.3-.56-1.99-1.9-3.66-3.28-5.2-2.36-2.63-5.03-5.31-7.94-7.21,5.34,8.14,11.28,15.82,4.69,25.62Z"/><path class="cls-19" d="M530.35,228.66c-2.18,2.08-3.4,8.02-5.37,10.76-2.3,3.21-5.35,6.81-8.87,8.48,1.57-6.97,9.15-14.38,14.23-19.24Z"/><path class="cls-26" d="M523.97,198.79c.29-.03.7.14.58.4-.4.85-7.44,3.07-8.67,3.65,1.53-2.03,5.56-3.83,8.09-4.05Z"/><path class="cls-29" d="M564.17,177.03c1.54-.95,2.89-2.36,4.67-2.65,2.32-.38,4.44,1.25,6.16,2.85,1.33,1.24,2.71,2.71,2.75,4.52,0,.28-.02.57-.15.81-.11.21-.29.38-.48.52-1.99,1.54-4.89,1.06-7.17,0-2.34-1.1-4.74-2.17-7.05-3.25-3.28-1.54-1.06-1.36,1.26-2.79Z"/><path class="cls-29" d="M563.72,95.48c5.11,2.9,10.19,6.85,11.74,12.51.35,1.27.75,2.85,2.03,3.12,1.03-1.87.85-4.22,0-6.18s-2.28-3.59-3.75-5.14c-2.38-2.51-5.01-4.95-8.27-6.13-1.76-.63-3.64-.87-5.51-1.01-1.66-.13-3.4-.31-5.05-.09,3.18.08,6.07,1.36,8.8,2.91Z"/><path class="cls-23" d="M603.6,246c.7-.68,1.23-1.59,2.13-1.99.45,2.36-1.07,4.8-3.21,5.89-3.23,1.64-7.61.66-10.35-1.46,2.82-2.5,8.1.84,11.43-2.43Z"/><path class="cls-23" d="M504.96,85.48c2.3-2.06,5.43-3.51,8.44-2.83.3.07.66.21.7.52.04.27-.19.5-.4.67-2.19,1.73-5.15,2.31-7.2,4.2-3.22,2.98-3.1,8.04-4.85,12.07-.68,1.57-1.52,1.41-2.23.2s-.03-4.21.23-5.47c.74-3.57,2.59-6.92,5.31-9.36Z"/><path class="cls-15" d="M344.63,250.52c-4.52-8.43-10.52-16.83-19.46-20.21,14.33,1.96,24.71,14.73,31.02,27.74,7.02,14.46,10.94,30.41,11.43,46.47.16,5.39.11,11.89-3.96,15.49-6.46-6.54-3.97-23.59-5.78-32.59-2.59-12.86-7.04-25.34-13.25-36.9Z"/><path class="cls-9" d="M163.22,269.96c4.53-1.17,7.12-5.75,9.53-9.76,2.41-4.01,5.95-8.27,10.62-8.05-4.47,7.55-11.11,13.81-18.91,17.83"/><path class="cls-34" d="M463.99,293.16c-2.66,2.21-5.32,4.42-7.98,6.63-2.74,2.27-5.48,4.56-8.51,6.43-11.48,7.13-25.7,7.9-38.85,8.13,19.18-2.32,40.19-8.61,55.34-21.2Z"/><path class="cls-25" d="M478.9,225.4c.35-1.33,1.39-3.03,2.64-2.44.33.15.56.44.79.73,7.08,8.86,14.29,18.33,16.09,29.53.76,4.74.5,9.65-.77,14.28-.25.9-.68,1.93-1.6,2.12-2.36-5.08-3.9-10.51-5.53-15.87-1.46-4.8-2.33-9.78-3.89-14.55-1.56-4.77-3.89-10.55-7.73-13.78Z"/><path class="cls-25" d="M448.48,179.14c2.1.89,4.23,1.79,6.05,3.17,1.62,1.23,2.93,2.81,4.23,4.37,4.97,5.96,9.47,9,10.29,16.7-1.57.31-1,3-1.9,3.92-1.48-4.47-4.85-7.98-8.13-11.34-4.3-4.41-8.62-8.82-13.37-12.76-3.14-2.6-13.39-3.85-14.6-7.83,5-1,13.14,1.95,17.43,3.76Z"/><path class="cls-18" d="M494.3,286.51c3.44-7.92,5.17-27.62-.14-39.05-5.67-12.22-15.8-26.01-15.8-26.01-14.11-.24-17.32,5.96-17.32,5.96l4.14,6.22s10.54,13.89,15.92,23.76c0,0,3.65,25.19-2.85,36.07"/><path class="cls-18" d="M424.14,175.64c7.64-1.06,23.72,2.32,30.34,9.85,7.08,8.05,13.49,20.41,13.49,20.41-5.85,12.5-12.06,13.79-12.06,13.79l-3.07-5.2s-6.3-12.75-11.68-19.96c0,0-18.05-9.49-29.3-6.47"/><path class="cls-40" d="M462.17,202.72c.28.92.51,1.89.65,2.87.4,2.79.09,5.66-1.69,7.76-.57.67-1.2,1.27-2,1.45-.36-4.07,3.64-7.51,3.05-12.08Z"/><path class="cls-40" d="M438.6,178.95c.58.24,1.24.91.81,1.37-.12.13-.3.19-.48.23-2.57.62-5.08-1.04-7.63-1.72-1.75-.47-3.94-.68-5.7-.27,4.43-.18,8.63-1.4,12.99.39Z"/><path class="cls-40" d="M470.82,224.02c2.42-.71,4.98-.79,7.51-.77-.86,1.43-2.72,1.81-4.36,2.13-2.89.56-5.71,1.69-8.56,2.23.92-1.88,3.45-3.01,5.41-3.58Z"/><path class="cls-40" d="M490.23,275.23c2.34-6.82,1.99-14.23,1.62-21.43.43-.7,1.61-.35,1.97.39s.2,1.6.16,2.41c-.17,3.06,1.35,5.93,2.06,8.91.71,2.97.63,6.08.37,9.12-.16,1.91-.41,3.86-1.23,5.6-1.98,4.19-6.73,6.16-11.08,7.76,1.56,0,3.48-2.99,3.89-4.29.86-2.73,1.28-5.68,2.24-8.49Z"/><path class="cls-17" d="M260.17,260.1c3.14-.85,6.31-1.71,9.18-3.25,5.88-3.16,10.11-9.22,11.04-15.83-4.4.86-8.61,2.49-12.79,4.11-9.2,3.57-18.4,7.14-27.6,10.72-2.03.79-4.1,1.6-5.78,2.99-7.47,6.19,1.91,6.23,6.52,5.62,6.59-.88,13.03-2.63,19.43-4.36Z"/><path class="cls-1" d="M205.28,112.88s-3.78-9.1-10.2-27.58c0,0-30.87-7.07-43.71,30.93l-4.89,94.79s11.52,38.81,73.63,55.36c0,0,73.6-9.98,86.39-60.6,0,0-.37-36.61,1.67-51.54,0,0,5.68-22.38-13.9-37.69,0,0-15.76-22.06-12.98-38.61,0,0-17.87,11.78-36.28,10.02,0,0-27.55-15.81-39.73,24.91Z"/><path class="cls-1" d="M306.51,206.71s7.79,7.42,18.17,0c10.38-7.42,17.61-26.72,18.17-32.7s5.28-16.34-8.71-23.44c-13.99-7.1-31.52,18.38-31.52,18.38l3.89,37.75Z"/><path class="cls-1" d="M147.24,196.38s5.2-41.22,2.44-47.36c-2.76-6.15-9.49-5.92-9.49-5.92,0,0-8.14,3.79-8.14,13.9s.68,20.2,1.27,22.05c.59,1.85,6.87,14.42,13.92,17.33Z"/><path class="cls-28" d="M313.06,179.29c5.39-5.74,14.62-7.14,21.25-3.22"/><path class="cls-28" d="M323.24,174.45c3.38,4.23,3.49,10.9.26,15.34"/><path class="cls-28" d="M147.85,162.89c-4.75-.71-9.75,2.84-11.52,8.18"/><path class="cls-28" d="M141.11,164.94c-.07,3.98,2.36,7.81,5.58,8.81"/><path class="cls-2" d="M151.43,148.88c-.41-7.25-.82-14.55.04-21.76s3.08-14.41,7.45-20.2c7.99-10.59,21.74-14.93,34.81-17.18-3.92,3.84-2.46,10.58.6,15.13,3.22,4.8,7.92,8.59,13.29,10.74-.11-5.53-.04-11.59,3.52-15.82,1.83-2.18,4.4-3.61,7-4.75,16.84-7.39,36.73-4.64,53.73-11.65,3.1-1.28,5.58-1.79,7.88-4.23,1.22,5.9-1.45,12.22.36,17.97.71,2.27,2.07,4.27,3.41,6.23,5.98,8.74,12.09,17.63,20.39,24.19,1.18.93,2.43,1.85,3.19,3.15.75,1.29.94,2.82,1.11,4.31.72,6.25,1.44,12.5,2.15,18.74-1.92-17.4,3.45-34.54-2.35-51.06-2.71-7.71-7.62-14.41-12.47-20.99-2.28-3.09-4.71-6.3-8.19-7.91-2.84-1.31-6.07-1.39-9.2-1.45-38.27-.7-77.54-.38-113.37,13.09-3.07,1.15-6.19,2.45-8.55,4.73-4.06,3.92-5.14,9.93-5.81,15.53-1.44,11.96-2.02,24.03-1.72,36.07.07,2.75.58,5.4,2.72,7.12Z"/><path class="cls-4" d="M306.78,162.98s3.17-2.01,6.49-6.43c4.07-5.42,20.97-8.03,21.32-6.43,0,0,12.51-17.01,6.95-54.69,0,0-4.63-32.17-38.93-38.61,0,0,7.79-6.77,24.29-4.3,0,0-6.67-11.63-27.07-5.96,0,0,3.71-9.96-6.49-22.83l-2.92,12.86s-38.8-54.22-98.12-21.13l1.9,2.71s-36.99-1.48-55.13,42.49l20.79-6.59s-32.44,20.22-26.88,60.67l4.63-4.6,12.98,39.53s-8.81-64.8,44.03-62.96c-1.75,6.41,6.21,24.65,12.59,29.55,0,0,1.05-34.78,33.39-28.26,0,0,31.42,3.76,40.69-10.02,0,0-6.91,15.69,24.35,52.43,0,0,2.07,24.32,1.14,32.6"/><path class="cls-2" d="M295.83,50.57c4.56-2.55,9.9-3.71,15.11-3.27,1.08.09,2.37.41,2.7,1.44-3.75.71-7.37,2.07-10.66,4.01-1.9,1.12-3.85,2.69-4.12,4.88,2.62,1.79,5.6,3.42,7.23,6.14.97,1.62-.03.62,1.97,3.62s2.18,3.7,3.12,5.75c-1.77-1.04-3.28-2.45-4.78-3.85-5.15-4.8-10.31-9.6-15.3-14.57-2.63-2.62-5.25-5.31-8.45-7.19-3.26-1.91-6.98-2.89-10.69-3.68-3.67-.78-7.38-1.4-11.11-1.85,2,.24,4.58-.54,6.62-.65,2.39-.13,4.78-.14,7.17-.04,3.77.16,7.55.94,11.32.76,6.09-.29,9.28-4.22,9.42-10.26,2.46,5.79,2.41,12.84.45,18.76Z"/><path class="cls-32" d="M155.96,133.73c.45-4.67,6.87-7.58,11.76-8.79,4.89-1.21,10.36-1.84,13.84-5.19,3.48-3.35,2.39-10.64-2.7-11.04"/><path class="cls-32" d="M156.3,134.2c-1.97-5.84.34-11.46,5.73-14.84,5-3.13,11.11-8.55,17.5-10.59"/><path class="cls-32" d="M284.98,136.64c-.45-4.67-6.87-7.58-11.76-8.79-4.89-1.21-10.36-1.84-13.84-5.19-3.48-3.35-2.39-10.64,2.7-11.04"/><path class="cls-32" d="M284.65,137.11c1.97-5.84-.34-11.46-5.73-14.84-5-3.13-11.11-8.55-17.5-10.59"/><path class="cls-24" d="M162.26,160.46s-4.1-22.52,18.43-31.73c0,0,12.29-6.14,19.46,6.14,0,0,10.24,16.66,0,27.78,0,0-26.63,10.09-37.89-2.19Z"/><path class="cls-26" d="M162.26,160.46s8.36-15.9,21.08-19.72c0,0,10.67-6.89,19.89,7.44,0,0,2.05,11.26-7.17,14.33s-27.1,2.07-29.94,1.03"/><path class="cls-33" d="M186.29,139.5c-5.8,2.18-9.98,4.2-11.22,6.12-2.05,2.05-2.05,3.68-2.05,6.65,0,5.76,3.81,10.63,9.04,12.23l9.86-.98c3.99-2.17,6.7-6.39,6.7-11.25,0-6.91-5.48-12.52-12.34-12.77Z"/><ellipse cx="185.82" cy="151.76" rx="7.17" ry="6.65"/><circle class="cls-26" cx="178.14" cy="151.76" r="2.56"/><ellipse class="cls-26" cx="181.49" cy="146.01" rx="2.84" ry="2.95"/><path class="cls-24" d="M279.61,165.03s4.1-22.52-18.43-31.73c0,0-12.29-6.14-19.46,6.14,0,0-10.24,16.66,0,27.78,0,0,26.63,10.09,37.89-2.19Z"/><path class="cls-26" d="M279.61,165.03s-8.36-15.9-21.08-19.72c0,0-10.67-6.89-19.89,7.44,0,0-2.05,11.26,7.17,14.33,9.22,3.07,27.1,2.07,29.94,1.03"/><path class="cls-33" d="M255.59,144.07c5.8,2.18,9.98,4.2,11.22,6.12,2.05,2.05,2.05,3.68,2.05,6.65,0,5.76-3.81,10.63-9.04,12.23l-9.86-.98c-3.99-2.17-6.7-6.39-6.7-11.25,0-6.91,5.48-12.52,12.34-12.77Z"/><ellipse cx="256.05" cy="156.33" rx="7.17" ry="6.65"/><circle class="cls-26" cx="263.73" cy="156.33" r="2.56"/><ellipse class="cls-26" cx="260.38" cy="150.58" rx="2.84" ry="2.95"/><path class="cls-21" d="M223.31,170.78c-6.63-1.26-14.12,3.75-13.96,10.68.16,6.93,8.97,9.15,14.28,6.42"/><path class="cls-5" d="M235.37,212.02c-.08-.19-.15-.37-.23-.55l-36.08-.2c-1.28,2.86-2.01,6.07-2.01,9.46,0,11.96,8.95,21.65,20,21.65s20-9.69,20-21.65c0-3.1-.6-6.05-1.69-8.71ZM204.33,237.19c6.36,6.93,20.91,5.2,26.36-.87-5.45,6.06-20,7.79-26.36.87Z"/><path class="cls-26" d="M199.06,211.27c3.24-7.22,10.08-12.19,17.99-12.19s14.88,5.06,18.08,12.39"/><path class="cls-7" d="M230.12,237c-2.46,2.3-6.28,3.87-10.35,4.43-.45.08-.91.12-1.37.16-.32.03-.65.04-.97.06-.65.03-1.29.03-1.93,0-4.2-.16-8.24-1.5-10.91-4.3,1.58-1.16,3.97-1.9,6.65-1.9,2.52,0,4.79.65,6.36,1.69,1.57-1.04,3.85-1.69,6.36-1.69s4.57.59,6.15,1.54Z"/><path class="cls-7" d="M204.6,237.35s2.45,4.17,12.45,5.03c0,0,8.87-.38,13.07-5.39"/><path class="cls-37" d="M194.06,169.04c-3.01,3.33-8.04,3.51-12.48,4.13-1,.14-2.02.32-2.86.87-.78.51-1.33,1.28-1.88,2.02-1.43,1.93-2.95,3.79-4.56,5.57-.62.68-1.28,1.38-2.13,1.73-2.44,1.01-5.07-1.1-7.71-1.05,8.57-8.13,19.81-13.23,31.62-13.27Z"/><path class="cls-37" d="M163.06,205.09c1.35-.06,2.59-.93,3.27-2.09s.85-2.58.65-3.92c-.24-1.59-.94-3.37-.02-4.69.34-.48.84-.81,1.3-1.18,1.09-.87,1.97-2.02,2.52-3.3-.42-.13-.86.14-1.21.4-2.92,2.16-5.49,4.79-7.58,7.76-1.52,2.16-3.79,7.25,1.07,7.02Z"/><path class="cls-37" d="M147.3,215.88c.96-.24,1.72-1.03,2.15-1.93s.6-1.89.77-2.87c.29-1.73-.07-1.91.83-3.7,1-2,2-5,1.83-7.41-.08-1.09,1.38-1.8,1.45-2.89-2.5,1.23-4.2,3.61-5.79,5.9-1.18,1.7-2.37,3.42-3.03,5.38-.62,1.85-2.23,8.52,1.79,7.51Z"/><path class="cls-20" d="M164.46,169.43s-9.93,11.63,0,13.93c0,0,3.97,3.15,12.91-9.66,0,0-.99-3.42,12.91-2.56,0,0,7.94-1.71,7.94-5.98s-30.78,0-33.76,4.27Z"/><path class="cls-20" d="M159.69,200.21s-.11,4.76,3.76,3.71c0,0,1.59,1.59,3.16-4.52,0,0-.4-5.88,4.44-10.01,0,0-11.15,1.31-11.36,10.83Z"/><path class="cls-20" d="M155.05,196.39s-18.74,4.13-12.12,18.08c0,0,5.89,2.87,6.68-3.17,1.01-4.14,2.13-12.75,5.44-14.91Z"/><path class="cls-26" d="M162.54,173.31c.44-.54,1.07-.87,1.63-1.28.71-.51,1.31-1.17,1.77-1.91-.54.87-.9,1.77-1.32,2.7-.45,1-1.22,1.76-1.67,2.72-.27.57-.52,2.05-1.09.94-.4-.79.18-2.55.68-3.17Z"/><path class="cls-26" d="M182.42,165.09c.79-.03,1.52-.49,2.31-.48.37,0,.74.11,1.05.31.07.04.14.1.15.19,0,.13-.16.19-.29.21-.86.15-1.73.29-2.61.27-.66-.02-1.46-.12-1.98-.52.45-.09.9.05,1.37.03Z"/><path class="cls-26" d="M160.61,198.52c-.13-.64.04-1.33.46-1.84.15.68,0,1.43-.4,2"/><path class="cls-26" d="M143.02,212.2c-.27.76.4,1.69,1.2,1.69-.2-.66-.66-1.24-1.27-1.57"/><path class="cls-26" d="M145.65,201.86c.36-.33.59-.77.92-1.13s.84-.62,1.29-.45c.11.04-2.93,2.36-3.47,2.46.33-.34.89-.54,1.26-.89Z"/><path class="cls-37" d="M250.95,171.82c3.95,1.16,6.61,4.97,7.81,8.9.65,2.14,1.14,4.64,3.06,5.8,2.03,1.24,4.65.35,7.01.66,1.39.19,2.72.81,3.75,1.77,1.22,1.14,1.98,2.69,3.02,4s2.61,2.43,4.26,2.18c1.94-.3,3.15-2.44,3.08-4.4s-1.09-3.75-2.11-5.42c-.73-1.19-1.51-2.41-2.65-3.23-2.22-1.62-5.22-1.42-7.97-1.49s-5.93-.79-7.1-3.29c-.47-1-.53-2.16-.94-3.18-.61-1.51-1.97-2.63-3.47-3.26s-3.16-.8-4.79-.83c-2.3-.05-4.79.05-7.02.66.41.95,3.09.84,4.05,1.12Z"/><path class="cls-37" d="M292.05,227.39c.02.28,1.28,2.04,1.46,2.25.33.39.94.3,1.43.17,1.14-.31,2.5-.83,2.69-2,.09-.53-.1-1.07-.27-1.58-1.38-4.23-1.41-8.79-2.92-12.98-.42-1.17-2.14-4.44-2.36-1.49-.18,2.55.96,5.4.55,7.92-.59,3.71-.8,4.65-.59,7.71Z"/><path class="cls-20" d="M245.05,169.39s18-6,37,5c0,0,11,12,6,22,0,0-5,6-10-4,0,0-.5-8.5-3.5-9.5l-7,1s-5,1-7-7c0,0-3-7-7-6l-8.5-1.5Z"/><path class="cls-37" d="M276.8,214.51c-.02,1.29-.02,2.63.54,3.8.1.2.22.41.4.55.3.23.71.24,1.1.23.81-.02,1.71-.15,2.21-.79.37-.47.42-1.12.34-1.72-.1-.79-.4-1.54-.7-2.27-.41-1-1.92-5.96-3.1-6-1.08-.04-.76,5.23-.78,6.21Z"/><path class="cls-20" d="M273.55,202.89s10.5,2.01,10.5,10.69c0,0,0,4.68-3,4.68,0,0-3,1.34-3.75-4.68,0,0,.75-2.01-.75-6.68l-3-4.01Z"/><path class="cls-20" d="M291.93,208.41s15.75,7.42,6.46,19.26c0,0-5.05,3.15-5.85-2.39,0,0,3.23-9.35-.61-16.88Z"/><path class="cls-26" d="M279.83,174.08c1.07.45,2.16.92,2.98,1.74s1.32,2.05.96,3.15c-2.37-1.84-5.46-3.63-7.4-5.87,1.22-.01,2.34.98,3.47.98Z"/><path class="cls-26" d="M281.29,195.61c.65,1.59,2.83,2.33,4.31,1.45-1.61-.15-3.2-.6-4.65-1.31"/><path class="cls-26" d="M278.28,214.42c-.38,1.4.62,3.01,2.04,3.3-.67-.97-1.34-1.94-2.01-2.91"/><path class="cls-26" d="M275.09,203.77c.7.45,1.34.98,1.91,1.59-.37-.97-1.28-1.71-2.3-1.86"/><path class="cls-26" d="M298.41,215.89c-.92-2.14-3.9-3.53-4.73-5.89,2.08,1.46,3.74,3.57,4.73,5.89Z"/><path class="cls-26" d="M293.87,225.67c-.05,1.03.63,2.06,1.6,2.42-.71-.77-1.31-1.65-1.77-2.59"/><path class="cls-39" d="M246.08,160.92c.28,1.12,1.1,2.04,2.06,2.69s2.06,1.04,3.14,1.44c-.87-2.3-4.35-2.38-5.71-4.43"/><path class="cls-39" d="M189.26,160.8c.76.27,1.64-.01,2.26-.53s1.03-1.24,1.41-1.96c.1.94-.22,1.92-.87,2.61-.3.32-.7.59-1.14.6-.47.01-.9-.27-1.33-.45-.57-.24-1.2-.31-1.81-.21"/><path class="cls-6" d="M222,188.35c.57-.2,1.14-.48,1.75-.51.1,0,.2,0,.28.05s.12.18.05.25c-2.2.83-4.6.9-6.94.96-.19,0-.34-.02-.46-.15.74-.25,1.84-.03,2.64-.08.91-.06,1.82-.21,2.69-.52Z"/><ellipse class="cls-32" cx="181.92" cy="188.26" rx=".76" ry=".81" transform="translate(-65.66 273.35) rotate(-64.95)"/><ellipse class="cls-32" cx="191.41" cy="190.95" rx=".76" ry=".81" transform="translate(-62.62 283.49) rotate(-64.95)"/><ellipse class="cls-32" cx="193.12" cy="183.34" rx=".76" ry=".81" transform="translate(-54.75 280.66) rotate(-64.95)"/><ellipse class="cls-32" cx="168.21" cy="186.98" rx=".76" ry=".81" transform="translate(-72.41 260.19) rotate(-64.95)"/><ellipse class="cls-32" cx="177.93" cy="181.39" rx=".76" ry=".81" transform="translate(-61.73 265.77) rotate(-64.95)"/><ellipse class="cls-32" cx="180.84" cy="194.48" rx=".76" ry=".81" transform="translate(-71.92 275.96) rotate(-64.95)"/><ellipse class="cls-32" cx="174.11" cy="189.7" rx=".76" ry=".81" transform="translate(-71.47 267.1) rotate(-64.95)"/><ellipse class="cls-32" cx="261.25" cy="187.96" rx=".76" ry=".81" transform="translate(-19.65 345.04) rotate(-64.95)"/><ellipse class="cls-32" cx="269.26" cy="189.97" rx=".76" ry=".81" transform="translate(-16.85 353.46) rotate(-64.95)"/><ellipse class="cls-32" cx="247.54" cy="186.68" rx=".76" ry=".81" transform="translate(-26.4 331.89) rotate(-64.95)"/><ellipse class="cls-32" cx="257.26" cy="181.08" rx=".76" ry=".81" transform="translate(-15.72 337.47) rotate(-64.95)"/><ellipse class="cls-32" cx="259.54" cy="195.56" rx=".76" ry=".81" transform="translate(-27.53 347.88) rotate(-64.95)"/><ellipse class="cls-32" cx="253.44" cy="189.4" rx=".76" ry=".81" transform="translate(-25.46 338.8) rotate(-64.95)"/><path class="cls-27" d="M230.36,304.56c-1.83-.31-4.12,1.95-5.34,3.06-.93-1.31-1.95-4.01-3.82-4.32-3.36-.56-6.46,1.28-6.93,4.11-.07.4-.06.79-.02,1.17,2.4,2.36,5.14,4.39,7.8,6.49v-.68.68c1.65,1.3,3.26,2.63,4.75,4.09l6.14-5.29c1.08-.76,1.86-1.9,2.09-3.26.47-2.83-1.62-5.54-4.67-6.05Z"/><path class="cls-16" d="M230.51,302.93c-1.83-.31-4.12,1.95-5.34,3.06-.93-1.31-1.95-4.01-3.82-4.32-3.36-.56-6.46,1.28-6.93,4.11-.2,1.18.1,2.35.76,3.36l.35.65c2.08,1.87,4.33,3.56,6.53,5.3v-.69.69c1.34,1.06,2.67,2.13,3.92,3.29l7.12-6.13c1.08-.76,1.86-1.9,2.09-3.26.47-2.83-1.62-5.54-4.67-6.05Z"/><path d="M220.15,307.77l-.64-.11-.14.29-.57-.1.99-1.72.61.1.38,1.95-.59-.1-.04-.32ZM220.1,307.36l-.09-.69-.31.63.4.07Z"/><path d="M221.26,306.39l.56.09-.23,1.38.88.15-.08.45-1.44-.24.31-1.83Z"/><path d="M222.95,306.67l1.05.18c.18.03.3.09.38.2.08.1.11.22.09.35-.02.11-.07.2-.15.26-.05.04-.13.07-.22.09.12.05.21.12.26.21.05.09.06.19.04.31-.02.1-.05.18-.11.25-.06.07-.12.12-.21.15-.05.02-.13.03-.22.02-.13,0-.21,0-.26-.02l-.97-.16.3-1.83ZM223.28,308.2l.29.05c.1.02.17.01.21-.02.04-.03.07-.07.08-.13,0-.05,0-.1-.04-.14-.03-.04-.1-.07-.2-.08l-.29-.05-.06.37ZM223.4,307.48l.24.04c.09.01.15,0,.19-.02s.06-.07.07-.12c0-.05,0-.1-.03-.13-.03-.04-.09-.06-.17-.07l-.25-.04-.06.35Z"/><path d="M224.93,307l1.5.25-.07.39-.94-.16-.05.29.87.15-.06.37-.87-.15-.06.36.97.16-.07.42-1.53-.26.31-1.83Z"/><path d="M226.46,309.14l.31-1.83.94.16c.17.03.3.07.39.11.09.05.15.11.19.2.04.09.05.19.03.31-.02.1-.05.19-.11.25-.06.07-.12.12-.21.15-.05.02-.12.04-.21.04.06.03.11.06.13.09.02.02.04.06.07.11.03.06.05.1.06.13l.18.58-.63-.11-.21-.61c-.03-.08-.05-.13-.08-.16-.04-.04-.08-.06-.13-.07h-.05s-.12.74-.12.74l-.56-.09ZM227.21,308.14l.24.04s.08,0,.15,0c.04,0,.07-.02.1-.04.03-.03.05-.06.05-.1,0-.06,0-.11-.03-.15-.03-.04-.1-.06-.2-.08l-.25-.04-.06.37Z"/><path d="M228.59,307.61l1.71.29-.07.45-.57-.1-.23,1.38-.56-.09.23-1.38-.57-.1.08-.45Z"/><path d="M221.08,310.72l.06-.38.87.14-.13.78c-.19.09-.34.14-.48.16-.13.02-.29.01-.46-.01-.21-.04-.38-.1-.51-.2-.12-.1-.21-.22-.26-.38s-.06-.33-.03-.52c.03-.2.1-.37.21-.5.11-.13.25-.23.42-.28.13-.04.3-.04.51,0,.2.03.35.08.44.13.09.05.17.12.22.21.05.09.09.19.1.32h-.56c-.01-.07-.04-.12-.09-.17-.05-.04-.11-.08-.19-.09-.12-.02-.23,0-.32.08-.09.07-.15.2-.18.39-.03.2-.02.35.04.44.06.1.16.16.29.18.06,0,.12.01.18,0,.06,0,.13-.03.21-.06l.03-.17-.38-.06Z"/><path d="M223.33,311.46l-.64-.11-.14.29-.57-.1.99-1.72.61.1.38,1.95-.59-.1-.04-.32ZM223.28,311.05l-.09-.69-.31.62.4.07Z"/><path d="M225.54,310.26l.56.09-.18,1.09c-.02.11-.05.21-.1.3-.05.09-.12.17-.2.23-.08.06-.17.1-.25.11-.12.02-.25.02-.4,0-.09-.01-.18-.04-.29-.07-.1-.03-.19-.07-.25-.12s-.12-.11-.17-.19-.08-.16-.08-.23c-.02-.12-.02-.23,0-.32l.18-1.09.56.09-.19,1.12c-.02.1,0,.18.04.25.05.07.12.11.21.12.1.02.18,0,.24-.04.06-.05.1-.12.12-.22l.19-1.12Z"/><path d="M226.47,310.42l1.05.18c.18.03.3.1.38.2.08.1.11.22.09.35-.02.11-.07.2-.15.26-.05.04-.12.07-.21.09.12.05.21.12.26.21.05.09.06.19.04.31-.02.09-.05.18-.11.24-.06.07-.13.12-.21.15-.05.02-.13.03-.22.02-.13,0-.21-.01-.26-.02l-.97-.16.31-1.83ZM226.8,311.95l.29.05c.1.02.17,0,.21-.02s.07-.07.08-.13c0-.05,0-.1-.04-.14-.03-.04-.1-.07-.2-.08l-.29-.05-.06.37ZM226.92,311.23l.24.04c.09.01.15,0,.19-.01.04-.03.06-.07.07-.12,0-.05,0-.1-.03-.13-.03-.04-.09-.06-.17-.07l-.25-.04-.06.35Z"/><path d="M221.85,312.8l1.05.18c.17.03.3.09.38.2.08.1.11.22.09.35-.02.11-.07.19-.15.26-.05.04-.12.07-.22.09.13.05.21.12.26.21.05.09.06.19.04.31-.02.1-.05.18-.11.24-.06.07-.13.12-.21.15-.05.02-.13.03-.22.02-.13,0-.21,0-.26-.02l-.97-.16.31-1.83ZM222.17,314.33l.29.05c.1.02.17,0,.21-.02.04-.03.07-.07.08-.13,0-.05,0-.1-.04-.14-.03-.04-.1-.07-.2-.08l-.29-.05-.06.37ZM222.29,313.61l.24.04c.09.01.15,0,.19-.01s.06-.07.07-.12c0-.05,0-.1-.03-.13-.03-.04-.09-.06-.17-.08l-.25-.04-.06.35Z"/><path d="M223.82,313.13l.56.09-.12.69.7-.59.75.12-.78.58.5,1.26-.69-.12-.26-.82-.34.26-.07.45-.56-.09.31-1.83Z"/></g><path class="cls-12" d="M212.64,251.71c4.11-1.81,8.83-2.21,13.18-1.1"/></g></svg>