<?xml version="1.0" encoding="UTF-8"?><svg id="favicon" xmlns="http://www.w3.org/2000/svg" width="64" height="64" viewBox="0 0 64 64"><defs><style>.cls-1{fill:#fd7d74;}.cls-2{fill:#ff915e;}.cls-3{fill:#ff4daa;}</style></defs><path class="cls-3" d="M21.89,10.33c-1.97.06-3.48.81-4.53,2.26-1.05,1.44-1.57,3.93-1.57,7.47,0,1.16.11,1.97.33,2.42.22.45.33.71.33.78-1.69,0-2.95-.35-3.78-1.06-.83-.71-1.24-1.87-1.24-3.5,0-2.22.55-4.25,1.64-6.09,1.09-1.83,2.84-3.31,5.23-4.44,2.39-1.13,5.44-1.69,9.13-1.69.75,0,1.75.08,3,.23,2.25.22,3.85.33,4.79.33,1.66,0,3.06-.19,4.22-.56-.09.28-.27.9-.52,1.86-.25.96-.7,1.77-1.34,2.44-.64.67-1.51,1.12-2.6,1.34-1.85,0-4.04-.3-6.57-.89l-1.97,9.35h6.85l-.75,3.48h-6.85l-3.8,17.67h-6.76l6.76-31.4Z"/><path class="cls-1" d="M24.08,56.31c-1.27-1.34-1.9-3.55-1.9-6.65,0-2.46.42-5.11,1.27-7.95.85-2.84,2.21-5.27,4.09-7.3,1.88-2.03,4.26-3.04,7.15-3.04,1.79,0,3.24.39,4.34,1.16,1.1.77,1.65,1.96,1.65,3.55,0,1.01-.2,1.8-.61,2.38-.41.57-1.04.86-1.9.86s-1.54-.3-2.04-.92c.43-.21.81-.63,1.15-1.27.33-.63.5-1.29.5-1.97,0-.63-.17-1.15-.52-1.55-.35-.4-.9-.6-1.67-.6-1.27,0-2.47.85-3.62,2.55-1.15,1.7-2.07,3.84-2.78,6.42-.71,2.58-1.06,5.07-1.06,7.46,0,1.78.31,3.14.93,4.08.62.94,1.74,1.41,3.37,1.41,1.41,0,2.71-.3,3.91-.91,1.2-.61,2.22-1.48,3.08-2.6l.82.35c-.6,1.48-1.48,2.71-2.65,3.69-1.17.99-2.43,1.71-3.77,2.16-1.34.46-2.61.69-3.8.69-2.7,0-4.69-.67-5.95-2.01Z"/><path class="cls-2" d="M32.52,49.02c-.93-.91-1.4-2.12-1.4-3.64,0-1.28.4-2.39,1.2-3.34s1.88-1.42,3.23-1.42c1.04,0,1.9.15,2.56.44.67.3,1,.94,1,1.94,0,.43-.07.9-.22,1.42-.44-.35-.81-.6-1.13-.73-.31-.13-.67-.2-1.05-.2-.8,0-1.42.26-1.87.78-.45.52-.67,1.14-.67,1.85,0,.83.25,1.45.76,1.86.51.41,1.08.62,1.71.62.58,0,1.07-.11,1.47-.34.4-.23.76-.65,1.07-1.28.31-.63.62-1.54.91-2.75l5.7-25.35c-1.62.64-2.88,1.62-3.78,2.95-.9,1.33-1.34,2.94-1.34,4.83,0,.88.08,1.49.25,1.83s.25.54.25.59c-1.31,0-2.28-.27-2.92-.8-.64-.53-.96-1.41-.96-2.65,0-1.51.64-2.99,1.91-4.42,1.27-1.43,2.9-2.59,4.89-3.48,1.99-.89,3.97-1.33,5.96-1.33h1.45l-5.45,25.21c-.63,2.91-1.67,5.1-3.12,6.57-1.45,1.47-3.6,2.2-6.43,2.2-1.72,0-3.05-.46-3.98-1.37Z"/></svg>