<?xml version="1.0" encoding="UTF-8"?><svg id="favicon" xmlns="http://www.w3.org/2000/svg" width="65.97" height="78" viewBox="0 0 65.97 78"><defs><style>.cls-1{fill:#fd7d74;}.cls-2{fill:#ff915e;}.cls-3{fill:#ff4daa;}</style></defs><path class="cls-3" d="M17.6,12.24c-3.19.08-5.63,1.03-7.32,2.85-1.69,1.82-2.54,4.97-2.54,9.45,0,1.47.18,2.49.53,3.06.35.57.53.9.53.98-2.73,0-4.77-.45-6.11-1.34-1.34-.89-2.01-2.37-2.01-4.43,0-2.81.88-5.38,2.65-7.69,1.77-2.32,4.59-4.19,8.46-5.62,3.87-1.43,8.79-2.14,14.75-2.14,1.21,0,2.83.1,4.85.3,3.64.28,6.22.42,7.74.42,2.68,0,4.95-.24,6.83-.71-.15.36-.43,1.14-.83,2.35-.41,1.21-1.13,2.24-2.16,3.09-1.04.85-2.44,1.42-4.21,1.69-2.98,0-6.52-.38-10.62-1.13l-3.19,11.82h11.07l-1.21,4.4h-11.07l-6.14,22.34H6.67L17.6,12.24Z"/><path class="cls-1" d="M21.15,70.38c-2.05-1.69-3.07-4.49-3.07-8.41,0-3.11.69-6.47,2.06-10.05,1.37-3.59,3.57-6.67,6.61-9.23,3.03-2.57,6.89-3.85,11.57-3.85,2.9,0,5.24.49,7.01,1.47,1.78.98,2.67,2.48,2.67,4.49,0,1.28-.33,2.28-.99,3-.66.73-1.68,1.09-3.07,1.09s-2.49-.38-3.3-1.16c.7-.27,1.31-.8,1.85-1.6.54-.8.81-1.63.81-2.49,0-.8-.28-1.45-.84-1.96-.56-.5-1.46-.76-2.7-.76-2.05,0-4,1.08-5.85,3.23-1.86,2.15-3.35,4.86-4.49,8.12-1.14,3.26-1.71,6.41-1.71,9.43,0,2.25.5,3.97,1.51,5.16,1,1.19,2.82,1.78,5.45,1.78,2.28,0,4.39-.39,6.32-1.16,1.93-.77,3.59-1.87,4.99-3.29l1.33.44c-.97,1.87-2.4,3.43-4.29,4.67-1.89,1.25-3.92,2.16-6.09,2.74-2.16.58-4.21.87-6.15.87-4.37,0-7.58-.85-9.62-2.54Z"/><path class="cls-2" d="M34.78,61.15c-1.51-1.15-2.26-2.69-2.26-4.6,0-1.62.65-3.02,1.94-4.22,1.29-1.2,3.03-1.8,5.23-1.8,1.68,0,3.06.19,4.14.56,1.08.37,1.62,1.19,1.62,2.45,0,.54-.12,1.14-.35,1.8-.71-.45-1.31-.76-1.82-.92-.51-.17-1.08-.25-1.7-.25-1.29,0-2.3.33-3.02.99-.73.66-1.09,1.44-1.09,2.33,0,1.05.41,1.83,1.23,2.36.82.52,1.74.79,2.76.79.94,0,1.73-.14,2.38-.43.65-.29,1.22-.82,1.73-1.62.51-.79,1-1.95,1.47-3.48l9.22-32.05c-2.62.81-4.66,2.05-6.11,3.73-1.45,1.68-2.17,3.71-2.17,6.1,0,1.11.14,1.88.41,2.31.27.43.41.68.41.74-2.11,0-3.69-.34-4.73-1.01-1.04-.67-1.56-1.79-1.56-3.34,0-1.92,1.03-3.78,3.08-5.59,2.06-1.81,4.69-3.28,7.9-4.4,3.21-1.12,6.42-1.68,9.63-1.68h2.35l-8.81,31.87c-1.02,3.68-2.7,6.45-5.05,8.3-2.35,1.85-5.81,2.78-10.4,2.78-2.78,0-4.92-.58-6.43-1.73Z"/></svg>